<?xml version="1.0" encoding="UTF-8" standalone="no"?>
<!-- Created with Inkscape (http://www.inkscape.org/) -->

<svg
   width="20.509632mm"
   height="20.509634mm"
   viewBox="0 0 20.509632 20.509634"
   version="1.1"
   id="svg1"
   inkscape:version="1.4 (e7c3feb100, 2024-10-09)"
   sodipodi:docname="title.svg"
   inkscape:export-filename="title.svg"
   inkscape:export-xdpi="96"
   inkscape:export-ydpi="96"
   xmlns:inkscape="http://www.inkscape.org/namespaces/inkscape"
   xmlns:sodipodi="http://sodipodi.sourceforge.net/DTD/sodipodi-0.dtd"
   xmlns="http://www.w3.org/2000/svg"
   xmlns:svg="http://www.w3.org/2000/svg">
  <sodipodi:namedview
     id="namedview1"
     pagecolor="#ffffff"
     bordercolor="#000000"
     borderopacity="0.25"
     inkscape:showpageshadow="2"
     inkscape:pageopacity="0.0"
     inkscape:pagecheckerboard="0"
     inkscape:deskcolor="#d1d1d1"
     inkscape:document-units="mm"
     inkscape:zoom="1.7048557"
     inkscape:cx="649.61511"
     inkscape:cy="923.53859"
     inkscape:window-width="1536"
     inkscape:window-height="808"
     inkscape:window-x="0"
     inkscape:window-y="0"
     inkscape:window-maximized="1"
     inkscape:current-layer="layer1">
    <inkscape:page
       x="0"
       y="0"
       width="20.509632"
       height="20.509634"
       id="page2"
       margin="0"
       bleed="0" />
  </sodipodi:namedview>
  <defs
     id="defs1" />
  <g
     inkscape:label="Layer 1"
     inkscape:groupmode="layer"
     id="layer1"
     transform="translate(-180.98103,-216.43401)">
    <path
       style="fill:#ffff00;fill-opacity:1;stroke:#343434;stroke-width:2.17246;stroke-linecap:butt;stroke-linejoin:round;stroke-miterlimit:4.8;stroke-dasharray:none;stroke-opacity:1;paint-order:stroke markers fill"
       d="m 186.9951,232.3674 c -0.56087,-0.25886 -0.82627,-0.73032 -0.82627,-1.46779 0,-0.75935 0.23297,-1.23825 0.72432,-1.48892 0.58214,-0.29699 1.2796,-0.2476 1.71846,0.12167 0.84106,0.70772 0.69636,2.36836 -0.24614,2.82461 -0.38392,0.18585 -0.98044,0.19039 -1.37037,0.0104 z m 1.00268,-0.55548 c 0.27799,-0.10668 0.43023,-0.84987 0.29607,-1.44538 -0.11031,-0.48963 -0.73879,-0.6931 -1.0817,-0.35019 -0.32527,0.32527 -0.34759,1.33041 -0.0369,1.66113 0.16842,0.17928 0.5452,0.24086 0.82253,0.13444 z"
       id="path27" />
    <path
       style="fill:#ffff00;fill-opacity:1;stroke:#343434;stroke-width:2.17246;stroke-linecap:butt;stroke-linejoin:round;stroke-miterlimit:4.8;stroke-dasharray:none;stroke-opacity:1;paint-order:stroke markers fill"
       d="m 194.216,232.42267 c -0.87954,-0.34969 -1.19414,-1.78338 -0.57797,-2.63397 0.47895,-0.66118 1.56683,-0.77289 2.19087,-0.22497 0.44981,0.39494 0.63424,1.28523 0.40556,1.9577 -0.11976,0.35213 -0.47742,0.7601 -0.77562,0.8847 -0.26771,0.11185 -0.97929,0.12133 -1.24284,0.0165 z m 1.07374,-0.70581 c 0.17771,-0.17771 0.245,-0.53771 0.20468,-1.09505 -0.0266,-0.36829 -0.0636,-0.46682 -0.22801,-0.60827 -0.11196,-0.0963 -0.2891,-0.16878 -0.41249,-0.16878 -0.51993,0 -0.73692,0.34811 -0.69796,1.11971 0.0219,0.43285 0.0565,0.5557 0.19947,0.70791 0.22138,0.23565 0.71943,0.25936 0.93431,0.0445 z"
       id="path29" />
    <g
       id="g34">
      <circle
         style="fill:#343434;fill-opacity:1;stroke:#343434;stroke-width:3.781;stroke-linecap:butt;stroke-linejoin:round;stroke-miterlimit:4.8;stroke-dasharray:none;stroke-opacity:1;paint-order:stroke markers fill"
         id="path32"
         cx="191.23586"
         cy="226.68883"
         r="8.3643179" />
      <g
         id="g33">
        <path
           d="m 183.72881,227.95372 v -5.97928 h 0.6637 v 5.97928 z m 5.11827,-1.41111 h -0.75339 l -1.63832,-4.31704 h 0.74741 z m 0.59793,1.09421 v -0.71751 h 3.58757 v 0.71751 z m 4.1855,-1.09421 1.64431,-4.31704 h 0.74741 l -1.63833,4.31704 z m 4.44859,1.41111 v -5.97928 h 0.6637 v 5.97928 z m -14.32039,1.81771 -0.11361,-1.54266 h 0.83112 l -0.11361,1.54266 z m 3.89252,2.78634 q -0.49031,0 -0.8371,-0.20927 -0.3468,-0.20928 -0.53216,-0.58597 -0.18536,-0.3767 -0.18536,-0.88494 0,-0.52019 0.18536,-0.90287 0.19134,-0.38267 0.54411,-0.59195 0.35278,-0.20927 0.8371,-0.20927 0.71154,0 1.12411,0.44844 0.41855,0.44247 0.41855,1.2437 0,0.50226 -0.17938,0.88493 -0.17938,0.38267 -0.52618,0.59793 -0.34082,0.20927 -0.84905,0.20927 z m 0.012,-0.69957 q 0.34082,0 0.50226,-0.26309 0.16144,-0.26907 0.16144,-0.72947 0,-0.44845 -0.15546,-0.71752 -0.15546,-0.27505 -0.50824,-0.27505 -0.34679,0 -0.52019,0.26907 -0.16742,0.26309 -0.16742,0.7235 0,0.45442 0.16742,0.72349 0.1734,0.26907 0.52019,0.26907 z m 3.57562,0.69957 q -0.25711,0 -0.40062,-0.13752 -0.1435,-0.13752 -0.1435,-0.38865 0,-0.52618 0.54412,-0.52618 0.25711,0 0.39463,0.13752 0.1435,0.13753 0.1435,0.38866 0,0.23917 -0.1435,0.38267 -0.1435,0.1435 -0.39463,0.1435 z m 3.58757,0 q -0.4903,0 -0.8371,-0.20927 -0.3468,-0.20928 -0.53215,-0.58597 -0.18536,-0.3767 -0.18536,-0.88494 0,-0.52019 0.18536,-0.90287 0.19133,-0.38267 0.54411,-0.59195 0.35278,-0.20927 0.8371,-0.20927 0.71154,0 1.12411,0.44844 0.41855,0.44247 0.41855,1.2437 0,0.50226 -0.17938,0.88493 -0.17938,0.38267 -0.52618,0.59793 -0.34082,0.20927 -0.84906,0.20927 z m 0.012,-0.69957 q 0.34082,0 0.50226,-0.26309 0.16144,-0.26907 0.16144,-0.72947 0,-0.44845 -0.15546,-0.71752 -0.15546,-0.27505 -0.50824,-0.27505 -0.3468,0 -0.5202,0.26907 -0.16742,0.26309 -0.16742,0.7235 0,0.45442 0.16742,0.72349 0.1734,0.26907 0.5202,0.26907 z m 3.27067,-2.08677 -0.11361,-1.54266 h 0.83112 l -0.1136,1.54266 z"
           id="text26"
           style="font-weight:bold;font-size:12px;line-height:1;font-family:'Noto Sans Mono';-inkscape-font-specification:'Noto Sans Mono Bold';white-space:pre;fill:#ffffff;stroke-width:7.0998;stroke-linejoin:round;stroke-miterlimit:4.8;paint-order:stroke markers fill"
           aria-label="|\_/|&#10;'o.o' " />
        <path
           style="fill:#e39c44;fill-opacity:1;stroke:#343434;stroke-width:2.17246;stroke-linecap:butt;stroke-linejoin:round;stroke-miterlimit:4.8;stroke-dasharray:none;stroke-opacity:1;paint-order:stroke markers fill"
           d="m 186.9951,232.31171 c -0.31854,-0.16831 -0.46622,-0.31586 -0.62236,-0.62178 -0.19242,-0.37702 -0.19314,-1.21935 -0.001,-1.65278 0.39615,-0.89556 1.81615,-1.0413 2.40593,-0.24694 0.60488,0.8147 0.36773,2.10352 -0.46733,2.53978 -0.26222,0.13699 -1.04147,0.12615 -1.31483,-0.0183 z m 1.15841,-0.63085 c 0.31481,-0.35151 0.29917,-1.32891 -0.0265,-1.65455 -0.24646,-0.24646 -0.71523,-0.25428 -0.93938,-0.0157 -0.28092,0.29903 -0.33325,1.17377 -0.0964,1.61079 0.0985,0.18178 0.46306,0.31325 0.73008,0.26332 0.0988,-0.0185 0.24826,-0.11022 0.33214,-0.20388 z"
           id="path28" />
        <path
           style="fill:#e39c44;fill-opacity:1;stroke:#343434;stroke-width:2.17246;stroke-linecap:butt;stroke-linejoin:round;stroke-miterlimit:4.8;stroke-dasharray:none;stroke-opacity:1;paint-order:stroke markers fill"
           d="m 194.216,232.38079 c -0.18926,-0.0689 -0.51126,-0.40738 -0.66952,-0.70386 -0.22035,-0.41278 -0.21636,-1.24612 0.008,-1.67043 0.45011,-0.8513 1.79879,-0.9996 2.37927,-0.26164 0.18982,0.24132 0.36637,0.82705 0.36432,1.20865 -0.003,0.52069 -0.37112,1.1521 -0.80317,1.37689 -0.18971,0.0987 -1.05266,0.13271 -1.2789,0.0504 z m 1.13818,-0.71818 c 0.15559,-0.17439 0.16636,-0.23914 0.14369,-0.86367 -0.0225,-0.62117 -0.0389,-0.68618 -0.20412,-0.81307 -0.17704,-0.13592 -0.59315,-0.1847 -0.82306,-0.0965 -0.21092,0.0809 -0.32659,0.42767 -0.32548,0.97566 0.001,0.63125 0.10091,0.85526 0.43191,0.97102 0.32559,0.11388 0.56922,0.0595 0.77706,-0.17346 z"
           id="path30" />
      </g>
    </g>
  </g>
</svg>
